<?xml version="1.0" encoding="utf-8"?>
<!-- Generator: Adobe Illustrator 24.3.0, SVG Export Plug-In . SVG Version: 6.00 Build 0)  -->
<svg version="1.1" id="Layer_1" xmlns="http://www.w3.org/2000/svg" xmlns:xlink="http://www.w3.org/1999/xlink" x="0px" y="0px"
	 viewBox="0 0 12 12" style="enable-background:new 0 0 12 12;" xml:space="preserve">
<style type="text/css">
	.st0{fill:#E8E613;}
</style>
<g>
	<path class="st0" d="M0,0v12h12V0H0z M3.3,7.2L2.8,6.9L2.6,6.8L2,6.4l3-3.3l0.1,0.1L3.3,7.2z M6.2,8.9H6H5.1l0.8-5.8h0.2l0.8,5.8
		H6.2z M9.4,6.8L9.2,6.9L8.7,7.2l-1.8-4L7,3.1l3,3.3L9.4,6.8z"/>
	<polygon points="5.9,3.1 5.1,8.9 6,8.9 6.2,8.9 6.9,8.9 6.1,3.1 	"/>
	<polygon points="2,6.4 2.6,6.8 2.8,6.9 3.3,7.2 5.1,3.2 5,3.1 	"/>
	<polygon points="6.9,3.2 8.7,7.2 9.2,6.9 9.4,6.8 10,6.4 7,3.1 	"/>
</g>
</svg>
